<?xml version="1.0" encoding="UTF-8" standalone="no"?>
<svg
   xmlns:dc="http://purl.org/dc/elements/1.1/"
   xmlns:cc="http://creativecommons.org/ns#"
   xmlns:rdf="http://www.w3.org/1999/02/22-rdf-syntax-ns#"
   xmlns:svg="http://www.w3.org/2000/svg"
   xmlns="http://www.w3.org/2000/svg"
   xmlns:sodipodi="http://sodipodi.sourceforge.net/DTD/sodipodi-0.dtd"
   xmlns:inkscape="http://www.inkscape.org/namespaces/inkscape"
   width="110"
   height="110"
   viewBox="0 0 29.104166 29.104167"
   version="1.1"
   id="svg995"
   inkscape:version="1.0 (4035a4f, 2020-05-01)"
   sodipodi:docname="india.svg">
  <defs
     id="defs989" />
  <sodipodi:namedview
     id="base"
     pagecolor="#ffffff"
     bordercolor="#666666"
     borderopacity="1.0"
     inkscape:pageopacity="0.0"
     inkscape:pageshadow="2"
     inkscape:zoom="1.4"
     inkscape:cx="-38.247734"
     inkscape:cy="151.95624"
     inkscape:document-units="px"
     inkscape:current-layer="layer1"
     inkscape:document-rotation="0"
     showgrid="false"
     units="px"
     inkscape:showpageshadow="false"
     inkscape:window-width="1272"
     inkscape:window-height="856"
     inkscape:window-x="640"
     inkscape:window-y="159"
     inkscape:window-maximized="0" />
  <metadata
     id="metadata992">
    <rdf:RDF>
      <cc:Work
         rdf:about="">
        <dc:format>image/svg+xml</dc:format>
        <dc:type
           rdf:resource="http://purl.org/dc/dcmitype/StillImage" />
        <dc:title />
      </cc:Work>
    </rdf:RDF>
  </metadata>
  <g
     inkscape:label="Capa 1"
     inkscape:groupmode="layer"
     id="layer1">
    <g
       transform="translate(-2.645833,-5.480655)"
       id="g862">
      <rect
         style="fill:#da4453;fill-opacity:1;stroke:none;stroke-width:0.264583;stroke-linecap:round;stroke-linejoin:round;stroke-opacity:0.051031"
         id="rect939-3-5"
         width="14.552083"
         height="14.552083"
         x="2.6458278"
         y="5.4806557" />
      <rect
         y="20.032738"
         x="17.197922"
         height="14.552083"
         width="14.552083"
         id="rect939-3-5-4"
         style="fill:#27ae60;fill-opacity:1;stroke:none;stroke-width:0.264583;stroke-linecap:round;stroke-linejoin:round;stroke-opacity:0.051031" />
      <rect
         y="20.032738"
         x="2.6458278"
         height="14.552083"
         width="14.552083"
         id="rect939-3-5-0"
         style="fill:#fdbc4b;fill-opacity:1;stroke:none;stroke-width:0.264583;stroke-linecap:round;stroke-linejoin:round;stroke-opacity:0.051031" />
      <rect
         y="5.4806557"
         x="17.197922"
         height="14.552083"
         width="14.552083"
         id="rect939-3-5-48"
         style="fill:#2980b9;fill-opacity:1;stroke:none;stroke-width:0.264583;stroke-linecap:round;stroke-linejoin:round;stroke-opacity:0.051031" />
      <g
         aria-label="!"
         id="text1390-6"
         style="font-style:normal;font-variant:normal;font-weight:normal;font-stretch:normal;font-size:10.5833px;line-height:1.25;font-family:Audiowide;-inkscape-font-specification:Audiowide;letter-spacing:0px;word-spacing:0px;fill:#4d4d4d;fill-opacity:0.424736;stroke:none;stroke-width:0.12559"
         transform="matrix(2.1067151,0,0,2.1067151,-369.54709,-99.017655)">
        <path
           d="m 184.27719,59.046955 h -0.925 l -0.31523,-5.591373 h 1.55546 z m 0.21187,1.142045 q 0,0.139526 -0.0568,0.263549 -0.0517,0.118855 -0.14469,0.211873 -0.0879,0.08785 -0.21188,0.139526 -0.11885,0.05168 -0.25321,0.05168 -0.13953,0 -0.26355,-0.05168 -0.11886,-0.05168 -0.21187,-0.139526 -0.0878,-0.09302 -0.13953,-0.211873 -0.0517,-0.124023 -0.0517,-0.263549 0,-0.134358 0.0517,-0.253214 0.0517,-0.124023 0.13953,-0.211872 0.093,-0.09302 0.21187,-0.144694 0.12402,-0.05684 0.26355,-0.05684 0.13436,0 0.25321,0.05684 0.12403,0.05168 0.21188,0.144694 0.093,0.08785 0.14469,0.211872 0.0568,0.118856 0.0568,0.253214 z"
           style="font-style:normal;font-variant:normal;font-weight:normal;font-stretch:normal;font-family:Audiowide;-inkscape-font-specification:Audiowide;fill:#4d4d4d;fill-opacity:0.424736;stroke-width:0.12559"
           id="path1392-9" />
      </g>
      <g
         transform="matrix(2.1067151,0,0,2.1067151,-370.09697,-99.813735)"
         style="font-style:normal;font-variant:normal;font-weight:normal;font-stretch:normal;font-size:10.5833px;line-height:1.25;font-family:Audiowide;-inkscape-font-specification:Audiowide;letter-spacing:0px;word-spacing:0px;fill:#fcfcfc;fill-opacity:1;stroke:none;stroke-width:0.12559"
         id="text1390"
         aria-label="!">
        <path
           id="path1392"
           style="font-style:normal;font-variant:normal;font-weight:normal;font-stretch:normal;font-family:Audiowide;-inkscape-font-specification:Audiowide;fill:#fcfcfc;stroke-width:0.12559"
           d="m 184.27719,59.046955 h -0.925 l -0.31523,-5.591373 h 1.55546 z m 0.21187,1.142045 q 0,0.139526 -0.0568,0.263549 -0.0517,0.118855 -0.14469,0.211873 -0.0879,0.08785 -0.21188,0.139526 -0.11885,0.05168 -0.25321,0.05168 -0.13953,0 -0.26355,-0.05168 -0.11886,-0.05168 -0.21187,-0.139526 -0.0878,-0.09302 -0.13953,-0.211873 -0.0517,-0.124023 -0.0517,-0.263549 0,-0.134358 0.0517,-0.253214 0.0517,-0.124023 0.13953,-0.211872 0.093,-0.09302 0.21187,-0.144694 0.12402,-0.05684 0.26355,-0.05684 0.13436,0 0.25321,0.05684 0.12403,0.05168 0.21188,0.144694 0.093,0.08785 0.14469,0.211872 0.0568,0.118856 0.0568,0.253214 z" />
      </g>
    </g>
  </g>
</svg>
